<svg version="1.2" xmlns="http://www.w3.org/2000/svg" viewBox="0 0 120 120" width="120" height="120">
	<title>head-svg</title>
	<style>
		.s0 { fill: #ffc843 } 
		.s1 { fill: #d38700 } 
	</style>
	<g id="Layer">
		<g id="Layer">
			<circle id="Layer" class="s0" cx="60" cy="60" r="59.1"/>
			<circle id="Layer" class="s1" cx="60" cy="60" r="46"/>
			<path id="Layer" class="s0" d="m82.9 72.6c-7.7 1.7-15.7 8.4-21.9 16.9-2.9-4.1-5.3-8.2-6.6-9.7-4-2.4-9.4-1.4-11.6-2.2-1.6-0.6-1.5-3.2 0-5.5 0.1-0.6-1.2-1.8-1.6-2.5-0.1-1.2 1-2.5 0.2-3.9-0.9-0.6-2.1-0.1-3.5-0.1-1.6-0.2-1.7-2.5-1.3-3.4 0.8-1.8 1.9-2.7 2.5-3.4 0.9-1.5 1.9-3 3.1-4.5 0.5-0.9-2.1-2.4-2-3.4 0.2-0.9 1.2-2.1 1.9-3.9 3.7-11 12.1-16.5 22.1-16.5 17 0.3 23.4 11.8 16.9 31.7-0.2 2.5 0.6 7 1.8 10.4z"/>
		</g>
	</g>
</svg>